<svg xmlns="http://www.w3.org/2000/svg">
  <symbol id="bin" viewBox="0 0 24 24">
    <path d="M18,12H6c-0.552,0-1-0.448-1-1V4h14v7C19,11.552,18.552,12,18,12z"/>
    <path d="M20,3H4v0c0-1.105,0.716-2,1.6-2h12.8C19.284,1,20,1.895,20,3L20,3z"/>
    <path d="M4.75,23L4.75,23C4.336,23,4,22.664,4,22.25v-4.5C4,17.336,4.336,17,4.75,17h0c0.414,0,0.75,0.336,0.75,0.75v4.5
      C5.5,22.664,5.164,23,4.75,23z"/>
    <path d="M19.25,23L19.25,23c-0.414,0-0.75-0.336-0.75-0.75v-4.5c0-0.414,0.336-0.75,0.75-0.75l0,0c0.414,0,0.75,0.336,0.75,0.75
      v4.5C20,22.664,19.664,23,19.25,23z"/>
    <path d="M15.994,2C15.964,0.922,15.085,0.057,14,0.057h-4C8.915,0.057,8.036,0.922,8.006,2H15.994z"/>
    <path d="M16,6H8C6.895,6,6,6.895,6,8v13c0,1.105,0.895,2,2,2h0.55l0.953-9.053C9.529,13.693,9.744,13.5,10,13.5h4
      c0.256,0,0.471,0.193,0.497,0.447L15.45,23H16c1.105,0,2-0.895,2-2V8C18,6.895,17.105,6,16,6z"/>
    <polygon points="14.339,22 13.55,14.5 10.45,14.5 9.661,22   "/>
  </symbol>
</svg>
<svg xmlns="http://www.w3.org/2000/svg" xmlns:xlink="http://www.w3.org/1999/xlink">
  <symbol id="foodBin" viewBox="0 0 408.483 408.483">
    <g>
      <g>
        <path d="M87.748,388.784c0.461,11.01,9.521,19.699,20.539,19.699h191.911c11.018,0,20.078-8.689,20.539-19.699l13.705-289.316
          H74.043L87.748,388.784z M247.655,171.329c0-4.61,3.738-8.349,8.35-8.349h13.355c4.609,0,8.35,3.738,8.35,8.349v165.293
          c0,4.611-3.738,8.349-8.35,8.349h-13.355c-4.61,0-8.35-3.736-8.35-8.349V171.329z M189.216,171.329
          c0-4.61,3.738-8.349,8.349-8.349h13.355c4.609,0,8.349,3.738,8.349,8.349v165.293c0,4.611-3.737,8.349-8.349,8.349h-13.355
          c-4.61,0-8.349-3.736-8.349-8.349V171.329L189.216,171.329z M130.775,171.329c0-4.61,3.738-8.349,8.349-8.349h13.356
          c4.61,0,8.349,3.738,8.349,8.349v165.293c0,4.611-3.738,8.349-8.349,8.349h-13.356c-4.61,0-8.349-3.736-8.349-8.349V171.329z"/>
        <path d="M343.567,21.043h-88.535V4.305c0-2.377-1.927-4.305-4.305-4.305h-92.971c-2.377,0-4.304,1.928-4.304,4.305v16.737H64.916
          c-7.125,0-12.9,5.776-12.9,12.901V74.47h304.451V33.944C356.467,26.819,350.692,21.043,343.567,21.043z"/>
      </g>
    </g>
</symbol>    
</svg>